<?xml version="1.0" encoding="iso-8859-1"?>
<!-- Generator: Adobe Illustrator 19.0.0, SVG Export Plug-In . SVG Version: 6.00 Build 0)  -->
<svg xmlns="http://www.w3.org/2000/svg" xmlns:xlink="http://www.w3.org/1999/xlink" version="1.1" id="Layer_1" x="0px" y="0px" viewBox="0 0 449.37 449.37" style="enable-background:new 0 0 449.37 449.37;" xml:space="preserve" width="512" height="512">
<g>
	<path style="fill:#F2F2F2;" d="M232.218,187.235c-1.56,1.69-3.48,3.35-5.69,4.97c-7.67,5.61-18.87,10.7-30.98,14.83h-89.79   c-2.39-0.82-4.75-1.67-7.05-2.56c-9.35-3.6-17.78-7.77-23.93-12.27c-2.21-1.62-4.13-3.28-5.69-4.97   c5.54-10.45,15.58-27.28,31.67-44.17c15.4-16.62,36.84-33.28,49.89-37.39c1.84,0.58,3.84,1.41,5.97,2.45   c13,6.35,30.68,20.66,43.93,34.94C216.618,159.955,226.678,176.785,232.218,187.235z"/>
	<path style="fill:#E6E6E6;" d="M156.618,108.125c-16.22,13.15-48.1,50.35-57.91,96.35c-9.35-3.6-17.78-7.77-23.93-12.27   c-2.21-1.62-4.13-3.28-5.69-4.97c5.54-10.45,15.58-27.28,31.67-44.17c15.4-16.62,36.84-33.28,49.89-37.39   C152.488,106.255,154.488,107.085,156.618,108.125z"/>
	<path style="fill:#E6E6E6;" d="M226.528,192.205c-7.67,5.61-18.87,10.7-30.98,14.83h-89.79c-12.11-4.13-23.31-9.22-30.98-14.83   H226.528z"/>
	<path style="fill:#F24125;" d="M404.588,201.035H309.74l-77.052,15.836l-93.058-15.836h-26.442h-7.428H41.688   c-5.85,0-10.6,4.75-10.6,10.6v18.68h52.82h85.002h246.278v-18.68C415.188,205.785,410.438,201.035,404.588,201.035"/>
	<path style="fill:#DD3B2A;" d="M64.688,201.035h-23c-5.85,0-10.6,4.75-10.6,10.6v18.68h23v-18.68   C54.088,205.785,58.838,201.035,64.688,201.035z"/>
	<polyline style="fill:#DD3B2A;" points="276.74,201.035 139.63,201.035 131.79,201.035 154.364,227.815 168.91,227.815    171.41,230.315 247.46,230.315 276.74,201.035  "/>
	<polygon style="fill:#F7B239;" points="432.008,309.675 427.968,334.605 425.068,352.405 399.258,352.405 399.258,312.175    50.118,312.175 50.118,352.405 24.298,352.405 21.398,334.605 17.348,309.675 8.688,237.205 24.098,227.815 425.258,227.815    441.688,230.205  "/>
	<path style="fill:#F7B239;" d="M449.37,182.242v129.934h-16.04h-8.07v-84.36v-45.574c0-2.892,2.344-5.236,5.236-5.236h13.637   C447.026,177.005,449.37,179.35,449.37,182.242z"/>
	<polyline style="fill:#D0D0D0;" points="247.46,230.315 171.41,230.315 217.456,276.361 247.46,230.315  "/>
	<path style="fill:#E5A030;" d="M168.91,227.815h-14.546l46.768,55.482c1.544,1.832,3.707,2.728,5.861,2.728   c2.473,0,4.934-1.181,6.435-3.485l4.027-6.179l-1.268-38.656L168.91,227.815"/>
	<path style="fill:#F7B239;" d="M24.1,227.815v84.36h-8.07H0V102.202c0-2.892,2.344-5.236,5.236-5.236h13.627   c2.892,0,5.236,2.344,5.236,5.236V227.815z"/>
	<polygon style="fill:#F2F2F2;" points="309.74,201.035 280.46,230.315 224.68,286.085 168.91,230.315 139.63,201.035    195.55,201.035  "/>
	<rect x="24.098" y="227.815" style="fill:#E5A030;" width="9" height="84.36"/>
	<rect x="416.258" y="227.815" style="fill:#E5A030;" width="9" height="84.36"/>
	<polygon style="fill:#E5A030;" points="399.254,312.175 399.254,334.602 427.968,334.602 431.604,312.175  "/>
	<polygon style="fill:#E5A030;" points="17.756,312.175 21.402,334.602 50.115,334.602 50.115,312.175  "/>
</g>















</svg>
